<?xml version="1.0" encoding="utf-8"?>
<!-- Generator: Adobe Illustrator 19.0.0, SVG Export Plug-In . SVG Version: 6.00 Build 0)  -->
<svg version="1.1" id="Layer_1" xmlns="http://www.w3.org/2000/svg" xmlns:xlink="http://www.w3.org/1999/xlink" x="0px" y="0px"
	 viewBox="0 0 96 96" style="enable-background:new 0 0 96 96;" xml:space="preserve">
<style type="text/css">
	.st0{fill:#333333;}
</style>
<g id="XMLID_2_">
	<path id="XMLID_8_" class="st0" d="M46.3,15.5C29.2,16.4,15.5,30.6,15.5,48c0,17.9,14.6,32.5,32.5,32.5c17.9,0,32.5-14.6,32.5-32.5
		c0-17.4-13.7-31.6-30.8-32.5c-0.6,0-1.1,0-1.7,0C47.4,15.5,46.9,15.5,46.3,15.5z M46.6,20.3c0.5,0,0.9,0,1.4,0c0.5,0,0.9,0,1.4,0
		C64.1,21,75.7,33.2,75.7,48c0,15.3-12.4,27.7-27.7,27.7c-15.3,0-27.7-12.4-27.7-27.7C20.3,33.2,31.9,21,46.6,20.3z M26,35.8l0,6.1
		c0,4.9,2.5,8.6,7.4,8.6h2.9c4.9,0,9.8-4.1,9.9-9v-1.4h2.9v1.4c0,4.9,5,9,9.9,9h3c4.9,0,7.4-3.7,7.4-8.6l0-6.1H26z M37.3,57.1
		c-0.5,0.5-0.9,1.1-0.9,1.7c0,2.5,5.2,6.9,11.5,6.9c6.3,0,11.5-4.4,11.5-6.9c0-0.6-0.4-1.2-0.9-1.7c-2.5,1-6.3,1.7-10.7,1.7
		C43.7,58.7,39.9,58.1,37.3,57.1L37.3,57.1z"/>
</g>
</svg>
